<?xml version="1.0" encoding="UTF-8"?>
<svg id="Layer_2" data-name="Layer 2"
    xmlns="http://www.w3.org/2000/svg"
    xmlns:xlink="http://www.w3.org/1999/xlink" viewBox="0 0 233.74 284">
    <defs>
        <style>
      .cls-1 {
        fill: #168ca4;
      }

      .cls-1, .cls-2, .cls-3, .cls-4, .cls-5, .cls-6, .cls-7, .cls-8, .cls-9, .cls-10 {
        stroke-width: 0px;
      }

      .cls-2 {
        fill: url(#linear-gradient);
      }

      .cls-3 {
        fill: #1fb78f;
      }

      .cls-4 {
        fill: #010101;
      }

      .cls-6 {
        fill: #43bc96;
      }

      .cls-7 {
        fill: #fff;
      }

      .cls-8 {
        fill: url(#linear-gradient-2);
      }

      .cls-9 {
        fill: #148ba4;
      }

      .cls-10 {
        fill: #0d1a20;
      }
        </style>
        <linearGradient id="linear-gradient" x1="25.33" y1="232.78" x2="207.36" y2="232.78" gradientUnits="userSpaceOnUse">
            <stop offset="0" stop-color="#1ab689"/>
            <stop offset="1" stop-color="#102530"/>
        </linearGradient>
        <linearGradient id="linear-gradient-2" x1="56.12" y1="219.19" x2="176.57" y2="219.19" xlink:href="#linear-gradient"/>
    </defs>
    <g id="Layer_1-2" data-name="Layer 1">
        <g id="logo">
            <path class="cls-9" d="m179.27,37.81c4.74,1.4,9.45,2.88,14.19,4.27,1.23.36,1.91.87,1.88,2.33-.46,17.52-1.2,34.96-6.39,51.93-8.36,27.36-23.21,50.54-44.74,69.3-7.37,6.42-15.46,12.02-23.22,18-1.15.89-2.2,1.03-3.52.14-15.16-10.16-29.01-21.81-40.59-35.99-11.33-13.87-20.2-29.12-25.77-46.21-4.42-13.56-7.08-27.41-7.45-41.69-.12-4.78-.32-9.56-.59-14.33-.11-1.83.49-2.69,2.31-3.28,16.4-5.34,35.11-10.2,28.6-8.26-7.44,2.22-11.22,6.52-11.37,14.13-.59,29.95,9.22,56,30.03,77.61,6.67,6.93,13.92,13.33,22.1,18.57,3.23,2.07,6.1,2.25,9.43.15,12.86-8.11,23.53-18.35,31.94-31.07,8.9-13.46,14.9-28.06,17.47-43.92,1.21-7.47,1.38-15.14,1.55-22.73.15-6.71-4.3-10.36-10.04-12.55-3.63-1.38-.63-.78,14.2,3.61Z"/>
            <path class="cls-3" d="m119.64,184.33c-.68.15-1.38-.01-2.17-.54-15.16-10.16-29.01-21.81-40.59-35.99-11.33-13.87-20.2-29.12-25.77-46.21-4.42-13.56-7.08-27.41-7.45-41.69-.12-4.78-.32-9.56-.59-14.33-.11-1.83.49-2.69,2.31-3.28,16.4-5.34,35.11-10.2,28.6-8.26-7.44,2.22-11.22,6.52-11.37,14.13-.59,29.95,9.22,56,30.03,77.61,6.67,6.93,13.92,13.33,22.1,18.57,1.68,1.08,3.27,1.64,4.87,1.64l.03,38.37Z"/>
            <path class="cls-1" d="m125.05,62.23c0,3.2-2.47,5.81-5.6,6.04-.15.01-.3.02-.45.02-3.35,0-6.05-2.71-6.05-6.05s2.71-6.05,6.05-6.05c.14,0,.27,0,.4.01,3.16.21,5.65,2.83,5.65,6.04Z"/>
            <path class="cls-1" d="m119.37,49.12c-.13,0-.25,0-.38,0-7.25,0-13.12,5.88-13.12,13.12s5.88,13.12,13.12,13.12c.16,0,.32,0,.48-.01,7.03-.24,12.64-6.02,12.64-13.11s-5.67-12.92-12.74-13.11Zm.08,22.19c-.15,0-.31,0-.46,0-5.02,0-9.08-4.07-9.08-9.08s4.07-9.08,9.08-9.08c.13,0,.26,0,.39,0,4.84.2,8.69,4.19,8.69,9.08s-3.82,8.83-8.62,9.08Z"/>
            <path class="cls-1" d="m119.31,32.79s0,0-.02.01c-10.83,6.38-22.44,11.33-34.54,14.69-.19.06-.39.11-.58.17.2,4.43.61,8.76,1.18,12.98,0,.05.01.1.02.15,2.39,17.38,7.8,32.72,15,44.06.29.47.59.93.89,1.39.12.18.23.36.36.53.15.23.3.45.46.67.94,1.35,1.91,2.63,2.9,3.84.14.17.27.33.41.5,4.36,5.21,9.18,9.08,14.26,11.27,18.46-9.08,33.1-38.58,34.81-75.39-12.32-3.37-24.15-8.37-35.15-14.87Zm.17,45.07c-.16,0-.33,0-.49,0-8.64,0-15.65-7-15.65-15.65s7-15.65,15.65-15.65c.12,0,.25,0,.37,0,8.47.19,15.28,7.12,15.28,15.64s-6.74,15.38-15.16,15.64Z"/>
            <path class="cls-6" d="m118.99,56.17c.14,0,.27,0,.4.01l.05,12.08c-.15.01-.3.02-.45.02-3.35,0-6.05-2.71-6.05-6.05s2.71-6.05,6.05-6.05Z"/>
            <path class="cls-6" d="m119.47,75.34c-.16,0-.32.01-.48.01-7.25,0-13.12-5.88-13.12-13.12s5.88-13.12,13.12-13.12c.13,0,.25,0,.38,0v4.04c-.12,0-.25,0-.38,0-5.02,0-9.08,4.07-9.08,9.08s4.07,9.08,9.08,9.08c.16,0,.31,0,.46,0v4.03Z"/>
            <path class="cls-6" d="m119.65,123.05c-2.63-1.4-5.02-2.93-7.19-4.54-2.56-1.9-4.91-4.17-7.07-6.73-.14-.17-.28-.33-.41-.5-1.02-1.22-1.98-2.5-2.9-3.84-.16-.22-.31-.44-.46-.67-.13-.18-.24-.36-.36-.53-.3-.46-.6-.92-.89-1.39-8.4-13.44-13.01-31.04-15-44.06,0-.05-.01-.1-.02-.15-.8-5.29-1.17-9.81-1.18-12.98.19-.05.39-.11.58-.17,12.22-3.5,33.74-14.29,34.54-14.69.01,0,.02-.01.02-.01l.05,13.8c-.12,0-.25,0-.37,0-8.64,0-15.65,7-15.65,15.65s7,15.65,15.65,15.65c.16,0,.33,0,.49,0l.18,45.19Z"/>
            <path class="cls-10" d="m169,38.43c-.27-.04-29.92-6.42-47.34-17.43-.9-.68-2.15-.68-3.06,0-17.56,10.07-47.06,17.39-47.34,17.43-1.21.22-2.09,1.28-2.09,2.51,0,52.07,23.05,84.21,49.53,96.76.5.16,1.03.16,1.53,0,23.62-14.32,50.86-44.69,50.86-96.76,0-1.23-.88-2.29-2.09-2.51Zm-2.56,8.64c-2.09,44.95-25.1,72.21-45.66,85.18-1.38.55-1.54.73-2.92.18-21.39-12.78-41.58-42.37-44.04-85.35-.13-2.71,1.63-5.15,4.24-5.88,13.69-3.74,29.14-9.42,39.04-13.64,1.86-1.14,4.21-1.14,6.07,0,10.1,4.3,25.35,9.91,39.03,13.65,2.61.72,4.37,3.16,4.24,5.87Z"/>
            <path class="cls-2" d="m191.83,205.9c-2.58-1.42-5.82-.47-7.24,2.11-1.42,2.58-.48,5.82,2.11,7.24,6.35,3.49,10,7.36,10,10.61,0,3.98-5.64,10.15-21.48,15.53-15.65,5.32-36.55,8.24-58.87,8.24s-43.23-2.93-58.87-8.24c-15.84-5.38-21.48-11.55-21.48-15.53,0-3.26,3.64-7.12,10-10.62,2.58-1.42,3.52-4.66,2.11-7.24-1.42-2.58-4.66-3.52-7.24-2.11-7.08,3.89-15.53,10.51-15.53,19.96,0,7.24,4.98,17.57,28.71,25.63,16.72,5.68,38.85,8.81,62.3,8.81s45.58-3.13,62.3-8.81c23.73-8.06,28.71-18.39,28.71-25.63,0-9.45-8.44-16.07-15.53-19.96Z"/>
            <path class="cls-8" d="m76.08,233.69c10.83,3.06,25.13,4.74,40.26,4.74s29.44-1.68,40.26-4.74c13.24-3.74,19.96-9.16,19.96-16.1s-6.72-12.36-19.96-16.1c-1.83-.52-3.75-.99-5.76-1.43-2.23-.48-4.51.53-5.67,2.49-.02.03-.04.07-.06.1-1.82,3.1-.07,7.07,3.44,7.83,1.1.24,2.17.49,3.21.75,1.72.44,3.25.89,4.61,1.33,4.84,1.6,4.84,8.44,0,10.03-1.35.45-2.88.9-4.61,1.33-9.23,2.35-21.1,3.69-33.6,3.81-.61.04-1.22.07-1.83.07s-1.22-.03-1.83-.07c-12.5-.12-24.37-1.46-33.6-3.81-1.72-.44-3.25-.89-4.61-1.33-4.84-1.6-4.84-8.44,0-10.03,1.36-.45,2.88-.9,4.61-1.33,1.04-.26,2.11-.52,3.21-.75,3.51-.76,5.25-4.73,3.44-7.83-.02-.03-.04-.07-.06-.1-1.15-1.97-3.44-2.98-5.67-2.5-2.01.44-3.94.91-5.76,1.43-13.24,3.74-19.96,9.16-19.96,16.1,0,6.94,6.72,12.36,19.96,16.1Z"/>
            <path class="cls-10" d="m209.18,36.02c-.16-2.16-1.55-4.03-3.68-4.42-.49-.07-52.71-11.31-83.39-30.7-1.6-1.2-3.79-1.2-5.38,0-30.94,17.75-82.91,30.63-83.39,30.7-2.13.39-3.52,2.26-3.69,4.42-6.62,84.1,34.17,119.31,66.65,159.89,1.07,1.78,18.97,27.48,22.49,27.23,3.52-.25,19.2-22.07,22.73-25.66,6.06-10.6,74.58-67.13,67.67-161.46Zm-55.27,128.96c-11.22,12.86-19.14,17.22-30.85,24.61-2.43.97-5.15.97-7.58,0-9.11-6.3-19.93-11.81-31.32-24.04-25.65-27.54-45.8-65.2-46.32-118.73-.04-4.78,2.86-9.07,7.47-10.35,24.11-6.58,51.33-16.59,68.77-24.03,3.28-2.01,7.41-2.01,10.69,0,17.79,7.57,44.65,17.45,68.76,24.04,4.6,1.27,7.42,5.56,7.47,10.33.62,55.42-23.6,91.27-47.08,118.16Z"/>
            <path class="cls-7" d="m125.05,62.23c0,3.2-2.47,5.81-5.6,6.04-.15.01-.3.02-.45.02-3.35,0-6.05-2.71-6.05-6.05s2.71-6.05,6.05-6.05c.14,0,.27,0,.4.01,3.16.21,5.65,2.83,5.65,6.04Z"/>
            <path class="cls-7" d="m119.37,49.12c-.13,0-.25,0-.38,0-7.25,0-13.12,5.88-13.12,13.12s5.88,13.12,13.12,13.12c.16,0,.32,0,.48-.01,7.03-.24,12.64-6.02,12.64-13.11s-5.67-12.92-12.74-13.11Zm.08,22.19c-.15,0-.31,0-.46,0-5.02,0-9.08-4.07-9.08-9.08s4.07-9.08,9.08-9.08c.13,0,.26,0,.39,0,4.84.2,8.69,4.19,8.69,9.08s-3.82,8.83-8.62,9.08Z"/>
            <path class="cls-4" d="m125.05,62.23c0,3.2-2.47,5.81-5.6,6.04-.15.01-.3.02-.45.02-3.35,0-6.05-2.71-6.05-6.05s2.71-6.05,6.05-6.05c.14,0,.27,0,.4.01,3.16.21,5.65,2.83,5.65,6.04Z"/>
            <path class="cls-10" d="m119.37,49.12c-.13,0-.25,0-.38,0-7.25,0-13.12,5.88-13.12,13.12s5.88,13.12,13.12,13.12c.16,0,.32,0,.48-.01,7.03-.24,12.64-6.02,12.64-13.11s-5.67-12.92-12.74-13.11Zm.08,22.19c-.15,0-.31,0-.46,0-5.02,0-9.08-4.07-9.08-9.08s4.07-9.08,9.08-9.08c.13,0,.26,0,.39,0,4.84.2,8.69,4.19,8.69,9.08s-3.82,8.83-8.62,9.08Z"/>
            <path class="cls-7" d="m125.05,62.23c0,3.2-2.47,5.81-5.6,6.04-.15.01-.3.02-.45.02-3.35,0-6.05-2.71-6.05-6.05s2.71-6.05,6.05-6.05c.14,0,.27,0,.4.01,3.16.21,5.65,2.83,5.65,6.04Z"/>
            <path class="cls-1" d="m125.05,62.23c0,3.2-2.47,5.81-5.6,6.04-.15.01-.3.02-.45.02-3.35,0-6.05-2.71-6.05-6.05s2.71-6.05,6.05-6.05c.14,0,.27,0,.4.01,3.16.21,5.65,2.83,5.65,6.04Z"/>
            <path class="cls-5" d="m223.73,231.29c-1.21,0-2.43.02-3.64,0-3.24-.06-5.29-2.02-5.39-5.16-.11-3.27,1.6-5.18,5.06-5.31,2.89-.1,5.79-.06,8.68.12,3.27.21,5.36,2.3,5.31,5.01-.05,2.83-2.02,4.81-5.25,5.09-1.57.14-3.17.02-4.76.02,0,.07,0,.15,0,.22Z"/>
            <path class="cls-5" d="m9.43,231.2c-1.68,0-3.37.13-5.04-.03-2.6-.25-3.96-2-4.36-4.41-.32-1.94,1.85-5.02,3.88-5.21,3.61-.33,7.27-.54,10.88-.31,2.84.17,4.73,2.82,4.55,5.46-.17,2.52-1.93,4.2-4.88,4.45-1.67.14-3.36.03-5.04.03v.03Z"/>
            <path class="cls-5" d="m121.95,275.25c-.15,1.71-.14,3.13-.43,4.48-.54,2.53-2.06,4.15-4.8,4.26-2.71.11-4.37-1.47-4.67-3.9-.37-3.02-.43-6.15-.11-9.18.28-2.67,2.44-4.15,4.9-4.02,2.68.14,4.37,1.51,4.78,4.2.22,1.47.24,2.96.33,4.15Z"/>
        </g>
    </g>
</svg>